<?xml version="1.0" encoding="utf-8"?>
<svg viewBox="0 0 24 24" fill="none" xmlns="http://www.w3.org/2000/svg">
  <path d="M 4 20 C 3.45 20 2.979 19.804 2.588 19.413 C 2.196 19.021 2 18.55 2 18 L 2 14 C 2.55 14 3.021 13.804 3.413 13.412 C 3.804 13.021 4.027 12.55 4.027 12 C 4.027 11.45 3.804 10.979 3.413 10.587 C 3.021 10.196 2.55 10 2 10 L 2 6 C 2 5.45 2.196 4.979 2.588 4.588 C 2.979 4.196 3.45 4 4 4 L 20 4 C 20.55 4 21.021 4.196 21.413 4.588 C 21.804 4.979 22 5.45 22 6 L 22 18 C 22 18.55 21.804 19.021 21.413 19.413 C 21.021 19.804 20.55 20 20 20 L 4 20 Z" style="fill: rgb(0, 160, 89);"/>
  <path d="M 11.558 15.918 L 11 15.918 C 10.946 15.918 10.89 15.905 10.841 15.878 C 10.792 15.848 10.751 15.812 10.72 15.766 C 10.69 15.718 10.672 15.665 10.666 15.608 C 10.665 15.554 10.675 15.498 10.696 15.448 L 12.039 12.484 L 10.023 12.437 L 9.287 13.327 C 9.147 13.507 9.037 13.585 8.75 13.585 L 8.377 13.585 C 8.317 13.587 8.258 13.574 8.207 13.547 C 8.152 13.523 8.104 13.486 8.071 13.437 C 8.021 13.37 7.972 13.257 8.02 13.097 L 8.433 11.618 C 8.437 11.606 8.439 11.595 8.444 11.584 C 8.444 11.582 8.444 11.581 8.444 11.58 C 8.439 11.568 8.437 11.558 8.433 11.548 L 8.019 10.056 C 7.974 9.899 8.024 9.788 8.073 9.724 C 8.104 9.679 8.148 9.645 8.197 9.619 C 8.247 9.597 8.301 9.584 8.357 9.585 L 8.75 9.585 C 8.964 9.585 9.17 9.679 9.292 9.835 L 10.012 10.709 L 12.039 10.679 L 10.696 7.721 C 10.675 7.671 10.666 7.616 10.668 7.559 C 10.673 7.506 10.69 7.45 10.72 7.403 C 10.751 7.356 10.792 7.317 10.841 7.291 C 10.89 7.266 10.946 7.25 11 7.25 L 11.561 7.25 C 11.639 7.252 11.717 7.271 11.787 7.306 C 11.857 7.342 11.917 7.393 11.966 7.456 L 14.568 10.621 L 15.774 10.589 C 15.862 10.586 16.107 10.584 16.163 10.584 C 17.314 10.585 18 10.956 18 11.585 C 18 11.781 17.923 12.147 17.397 12.377 C 17.085 12.517 16.668 12.587 16.162 12.587 C 16.107 12.587 15.863 12.586 15.774 12.579 L 14.568 12.547 L 11.957 15.715 C 11.91 15.778 11.849 15.828 11.779 15.863 C 11.71 15.898 11.634 15.918 11.558 15.918 Z" style="fill: rgb(255, 255, 255);"/>
</svg>